<?xml version="1.0" standalone="no"?>
<!DOCTYPE svg PUBLIC "-//W3C//DTD SVG 20010904//EN"
 "http://www.w3.org/TR/2001/REC-SVG-20010904/DTD/svg10.dtd">
<svg version="1.0" xmlns="http://www.w3.org/2000/svg"
 width="626.000000pt" height="485.000000pt" viewBox="0 0 626.000000 485.000000"
 preserveAspectRatio="xMidYMid meet">

<g transform="translate(0.000000,485.000000) scale(0.100000,-0.100000)"
fill="#000000" stroke="none">
<path d="M4745 4358 c5 -19 2 -24 -14 -25 -11 -1 -20 1 -20 5 4 26 -2 32 -22
22 -13 -7 -19 -19 -17 -33 3 -20 9 -22 61 -22 46 0 58 3 63 17 9 28 -6 42 -22
21 -13 -17 -13 -17 -14 4 0 12 -5 25 -10 28 -7 4 -9 -2 -5 -17z"/>
<path d="M4807 4330 c-3 -13 0 -20 9 -20 8 0 14 9 14 20 0 11 -4 20 -9 20 -5
0 -11 -9 -14 -20z"/>
<path d="M4600 4331 c0 -6 4 -13 10 -16 6 -3 7 1 4 9 -7 18 -14 21 -14 7z"/>
<path d="M4922 4333 c-6 -2 -10 -9 -6 -14 3 -5 0 -9 -5 -9 -6 0 -11 5 -11 10
0 6 -5 10 -12 10 -8 0 -7 -5 3 -15 17 -18 49 -10 49 11 0 8 -1 14 -2 13 -2 0
-9 -3 -16 -6z"/>
<path d="M3140 4104 c0 -4 8 -13 18 -21 9 -8 12 -12 5 -9 -7 4 -11 -1 -10 -14
1 -11 1 -20 2 -21 0 0 20 -3 45 -6 l45 -5 -30 23 c-16 13 -32 27 -33 31 -5 11
-42 30 -42 22z"/>
<path d="M3085 4070 c3 -5 8 -10 11 -10 2 0 4 5 4 10 0 6 -5 10 -11 10 -5 0
-7 -4 -4 -10z"/>
<path d="M3120 4074 c0 -17 17 -36 24 -26 3 5 -1 15 -9 22 -8 7 -15 9 -15 4z"/>
<path d="M4675 3669 c-4 -6 -4 -13 -1 -16 3 -4 6 0 6 8 0 11 2 11 10 -1 8 -13
10 -12 10 3 0 19 -15 23 -25 6z"/>
<path d="M5056 3475 c-6 -17 12 -31 24 -19 5 5 2 14 -5 21 -10 10 -14 9 -19
-2z"/>
<path d="M5078 3423 c7 -3 16 -2 19 1 4 3 -2 6 -13 5 -11 0 -14 -3 -6 -6z"/>
<path d="M2375 3320 c4 -6 11 -8 16 -5 14 9 11 15 -7 15 -8 0 -12 -5 -9 -10z"/>
<path d="M2307 3279 c-9 -6 -21 -8 -26 -5 -5 4 -16 3 -25 0 -13 -5 -14 -10 -5
-20 6 -7 8 -18 4 -24 -7 -11 0 -12 33 -3 13 3 28 17 33 31 12 30 9 34 -14 21z"/>
<path d="M2340 3272 c0 -14 6 -22 16 -22 14 0 15 3 3 18 -7 9 -15 19 -16 21
-2 2 -3 -5 -3 -17z"/>
<path d="M2631 3263 c0 -11 3 -13 6 -5 2 6 10 9 15 6 7 -4 8 -2 4 4 -11 18
-26 14 -25 -5z"/>
<path d="M2712 3220 c0 -14 2 -19 5 -12 2 6 2 18 0 25 -3 6 -5 1 -5 -13z"/>
<path d="M2735 3229 c-4 -6 -5 -12 -2 -15 2 -3 7 2 10 11 7 17 1 20 -8 4z"/>
<path d="M1426 3043 c-11 -12 -6 -19 14 -20 11 -1 20 2 20 7 0 10 -26 20 -34
13z"/>
<path d="M5120 3030 c0 -11 2 -20 4 -20 2 0 6 9 9 20 3 11 1 20 -4 20 -5 0 -9
-9 -9 -20z"/>
<path d="M2860 3022 c0 -5 7 -9 15 -9 8 0 15 4 15 9 0 4 -7 8 -15 8 -8 0 -15
-4 -15 -8z"/>
<path d="M2927 3000 c3 -11 9 -22 13 -25 5 -3 6 4 3 15 -3 11 -9 22 -13 25 -5
3 -6 -4 -3 -15z"/>
<path d="M1605 3000 c-3 -5 -1 -10 4 -10 6 0 11 5 11 10 0 6 -2 10 -4 10 -3 0
-8 -4 -11 -10z"/>
<path d="M4876 2997 c-17 -13 -17 -14 -2 -20 22 -9 30 -5 31 16 2 20 -5 21
-29 4z"/>
<path d="M4925 3000 c-3 -5 -1 -10 4 -10 6 0 11 5 11 10 0 6 -2 10 -4 10 -3 0
-8 -4 -11 -10z"/>
<path d="M2906 2963 c6 -4 14 -15 17 -23 5 -11 6 -9 4 4 -1 11 -9 21 -17 23
-10 3 -11 2 -4 -4z"/>
<path d="M5200 2962 c0 -5 7 -9 15 -9 8 0 15 4 15 9 0 4 -7 8 -15 8 -8 0 -15
-4 -15 -8z"/>
<path d="M2879 2958 c0 -2 -2 -14 -5 -27 -4 -21 -2 -22 12 -10 10 8 12 15 5
17 -6 2 -9 8 -5 13 3 5 3 9 0 9 -3 0 -6 -1 -7 -2z"/>
<path d="M5205 2920 c3 -5 15 -15 27 -21 16 -9 19 -8 15 3 -2 7 -10 12 -16 11
-6 -2 -11 2 -11 7 0 6 -5 10 -11 10 -5 0 -7 -4 -4 -10z"/>
<path d="M2929 2863 c-13 -17 -13 -17 6 -3 11 8 22 16 24 17 2 2 0 3 -6 3 -6
0 -17 -8 -24 -17z"/>
<path d="M5317 2869 c7 -7 15 -10 18 -7 3 3 -2 9 -12 12 -14 6 -15 5 -6 -5z"/>
<path d="M2245 2860 c-3 -5 1 -10 10 -10 9 0 13 5 10 10 -3 6 -8 10 -10 10 -2
0 -7 -4 -10 -10z"/>
<path d="M2293 2813 c9 -2 23 -2 30 0 6 3 -1 5 -18 5 -16 0 -22 -2 -12 -5z"/>
<path d="M1552 2758 c17 -10 48 -10 48 0 0 5 -14 9 -30 9 -20 0 -26 -3 -18 -9z"/>
<path d="M2621 2762 c-19 -6 -51 -35 -51 -45 0 -4 4 -6 9 -3 5 4 7 -3 4 -14
-3 -11 -12 -20 -19 -20 -8 0 -14 -8 -14 -17 0 -15 2 -15 9 -4 10 16 41 8 41
-10 0 -9 -3 -9 -14 0 -11 9 -15 7 -19 -8 -3 -14 -1 -18 9 -14 8 3 14 0 14 -6
0 -6 4 -11 9 -11 5 0 7 23 5 51 -5 48 -4 51 15 46 12 -3 23 -1 26 4 3 4 12 6
19 3 17 -6 40 22 33 40 -6 14 -46 18 -76 8z"/>
<path d="M1565 2720 c-3 -6 1 -7 9 -4 18 7 21 14 7 14 -6 0 -13 -4 -16 -10z"/>
<path d="M2391 2701 c-9 -6 -4 -10 16 -14 34 -6 41 -2 16 11 -11 6 -25 7 -32
3z"/>
<path d="M2540 2700 c0 -5 5 -10 10 -10 6 0 10 5 10 10 0 6 -4 10 -10 10 -5 0
-10 -4 -10 -10z"/>
<path d="M1611 2684 c0 -11 3 -14 6 -6 3 7 2 16 -1 19 -3 4 -6 -2 -5 -13z"/>
<path d="M2660 2690 c0 -5 9 -10 21 -10 11 0 17 5 14 10 -3 6 -13 10 -21 10
-8 0 -14 -4 -14 -10z"/>
<path d="M2315 2679 c-11 -17 1 -21 15 -4 8 9 8 15 2 15 -6 0 -14 -5 -17 -11z"/>
<path d="M2643 2658 c-18 -23 -11 -48 13 -48 28 0 35 10 27 38 -6 24 -25 29
-40 10z"/>
<path d="M2713 2656 c3 -8 1 -17 -6 -20 -7 -2 -4 -5 6 -5 9 -1 17 -5 17 -11 0
-5 7 -7 16 -3 9 3 12 9 7 12 -5 3 -12 14 -16 24 -3 9 -11 17 -18 17 -6 0 -9
-6 -6 -14z"/>
<path d="M2378 2653 c-20 -5 -25 -33 -5 -33 14 1 47 24 47 34 0 7 -15 6 -42
-1z"/>
<path d="M2281 2624 c0 -11 3 -14 6 -6 3 7 2 16 -1 19 -3 4 -6 -2 -5 -13z"/>
<path d="M2851 2363 c-1 -14 5 -23 14 -23 9 0 15 9 15 23 0 16 -3 18 -9 8 -7
-11 -9 -11 -14 0 -3 8 -6 4 -6 -8z"/>
<path d="M2773 2343 c-43 -15 -96 -56 -104 -82 -7 -20 -69 26 -69 51 0 10 -4
18 -10 18 -10 0 -3 -27 11 -46 5 -6 5 -15 1 -19 -4 -5 1 -5 10 -2 11 4 21 0
26 -9 10 -17 48 -15 45 3 -1 6 15 13 36 17 37 6 58 27 46 47 -4 5 0 6 8 3 8
-3 18 -1 21 5 4 6 13 8 21 4 8 -3 15 0 15 5 0 19 -14 20 -57 5z"/>
<path d="M2790 2310 c-8 -5 -12 -12 -9 -15 4 -3 12 1 19 10 14 17 11 19 -10 5z"/>
<path d="M3726 2081 c-3 -5 1 -11 9 -14 9 -4 12 -1 8 9 -6 16 -10 17 -17 5z"/>
<path d="M3763 2070 c1 -22 22 -27 33 -8 4 7 3 8 -4 4 -7 -4 -12 -1 -12 8 0 9
-4 16 -9 16 -6 0 -9 -9 -8 -20z"/>
<path d="M3824 2075 c-3 -8 -4 -20 -1 -27 3 -7 6 -3 6 9 1 12 7 24 14 26 9 4
9 6 -1 6 -7 1 -15 -6 -18 -14z"/>
<path d="M3800 2041 c0 -6 4 -13 10 -16 6 -3 7 1 4 9 -7 18 -14 21 -14 7z"/>
<path d="M4870 1699 c0 -5 5 -7 10 -4 6 3 10 8 10 11 0 2 -4 4 -10 4 -5 0 -10
-5 -10 -11z"/>
<path d="M4780 1606 c0 -15 -3 -16 -14 -7 -11 10 -16 8 -21 -8 -3 -12 -3 -26
1 -32 4 -8 3 -9 -4 -5 -7 4 -12 1 -12 -8 0 -10 9 -16 25 -16 14 0 25 5 25 11
0 5 5 7 11 3 8 -5 8 -9 -1 -14 -9 -5 -9 -9 -1 -14 6 -4 15 -5 20 -2 10 7 33
-18 26 -28 -3 -3 1 -2 7 4 18 15 28 12 22 -7 -2 -10 1 -8 7 5 14 25 29 29 29
7 0 -8 4 -15 10 -15 5 0 7 7 4 15 -8 20 5 19 30 -2 19 -18 19 -18 4 5 -9 13
-14 31 -11 42 3 10 -1 21 -8 25 -8 5 -10 4 -5 -3 4 -7 2 -12 -3 -12 -6 0 -14
-1 -18 -2 -3 -2 -7 5 -9 15 -1 9 3 17 9 17 7 0 5 5 -3 10 -13 9 -13 10 0 11 8
0 0 5 -18 10 -25 8 -36 6 -48 -6 -20 -19 -24 -19 -40 3 -13 16 -13 16 -14 -2z"/>
<path d="M5253 1554 c-17 -17 -16 -31 1 -37 8 -3 16 2 19 13 7 26 -5 41 -20
24z"/>
<path d="M5280 1521 c0 -6 4 -13 10 -16 6 -3 7 1 4 9 -7 18 -14 21 -14 7z"/>
<path d="M5120 1460 c0 -13 18 -22 24 -11 3 5 -1 11 -9 15 -8 3 -15 1 -15 -4z"/>
<path d="M2287 1439 c7 -7 15 -10 18 -7 3 3 -2 9 -12 12 -14 6 -15 5 -6 -5z"/>
<path d="M2380 1405 c0 -8 7 -15 16 -15 14 0 14 3 4 15 -7 8 -14 15 -16 15 -2
0 -4 -7 -4 -15z"/>
<path d="M4887 1340 c3 -11 9 -20 13 -20 5 0 6 9 3 20 -3 11 -9 20 -13 20 -5
0 -6 -9 -3 -20z"/>
<path d="M2960 1261 c0 -18 18 -21 30 -6 10 13 9 15 -9 15 -11 0 -21 -4 -21
-9z"/>
<path d="M2974 1195 c-10 -25 -20 -45 -22 -45 -1 0 -21 9 -43 19 -47 23 -80
16 -100 -20 -10 -20 -12 -20 -21 -6 -9 17 -33 24 -26 9 9 -22 121 -113 134
-108 8 3 14 1 14 -4 0 -6 6 -10 14 -10 8 0 17 -9 21 -19 4 -13 12 -18 22 -14
10 4 14 2 10 -4 -4 -6 0 -13 8 -17 11 -4 15 -23 15 -79 0 -44 5 -78 13 -86 10
-11 10 -13 0 -7 -7 4 -13 2 -13 -3 0 -21 20 -10 35 19 15 30 45 33 45 4 0 -8
5 -14 10 -14 6 0 10 -7 10 -16 0 -10 4 -12 13 -7 6 4 19 7 27 5 8 -1 21 2 29
7 12 8 13 12 1 26 -10 12 -10 19 -2 27 9 9 12 9 12 -1 0 -7 5 -9 11 -5 9 5 10
-1 5 -20 -5 -21 -3 -27 6 -23 7 2 12 11 12 20 -1 12 3 14 22 7 19 -7 24 -6 24
5 0 24 48 19 52 -6 3 -18 5 -19 23 -6 18 14 18 18 6 41 -15 26 -44 35 -56 16
-4 -6 -16 -8 -27 -4 -12 4 -18 2 -15 -4 4 -5 -4 -9 -16 -8 -37 2 -27 31 11 31
18 0 37 7 42 15 8 13 11 13 19 1 5 -8 30 -15 60 -16 45 -3 50 -1 40 11 -10 12
-14 12 -20 2 -4 -7 -11 -9 -15 -5 -4 3 -1 13 6 22 11 13 10 14 -5 9 -14 -6
-16 -4 -10 6 6 10 3 12 -13 8 -12 -4 -20 -3 -18 0 2 4 -5 16 -15 26 -19 19
-19 19 -19 -4 0 -26 -10 -22 -14 7 -2 10 -8 18 -14 18 -17 0 -52 42 -52 63 0
10 -3 21 -6 25 -8 8 -34 -18 -34 -33 0 -7 -7 -4 -16 5 -10 9 -25 14 -35 12
-12 -3 -19 0 -19 10 0 9 -6 13 -15 9 -8 -3 -14 0 -12 6 1 6 -7 16 -19 22 -15
8 -19 17 -14 31 4 11 3 28 -2 39 -9 17 -11 17 -28 -8 -14 -23 -18 -25 -24 -11
-9 24 -8 28 7 22 10 -4 14 4 14 24 0 41 -11 36 -33 -16z m-114 -35 c0 -5 -2
-10 -4 -10 -3 0 -8 5 -11 10 -3 6 -1 10 4 10 6 0 11 -4 11 -10z m100 -54 c0
-3 -4 -8 -10 -11 -5 -3 -10 -1 -10 4 0 6 5 11 10 11 6 0 10 -2 10 -4z m65 -6
c-3 -5 -10 -10 -16 -10 -5 0 -9 5 -9 10 0 6 7 10 16 10 8 0 12 -4 9 -10z
m-145 -31 c0 -6 -4 -7 -10 -4 -5 3 -10 11 -10 16 0 6 5 7 10 4 6 -3 10 -11 10
-16z m360 -89 c0 -5 -10 -10 -22 -9 -22 0 -22 1 -3 9 11 5 21 9 23 9 1 1 2 -3
2 -9z m-111 -38 c-7 -3 -20 -12 -27 -21 -11 -14 -12 -14 -10 4 4 25 17 35 37
27 13 -5 13 -6 0 -10z m-64 -22 c-6 -20 3 -50 16 -50 5 0 9 6 9 13 0 7 9 18
20 25 17 10 20 10 20 -3 0 -8 -7 -15 -16 -15 -14 0 -14 -3 -4 -15 9 -11 9 -15
1 -15 -7 0 -10 -4 -7 -9 4 -5 -3 -7 -14 -4 -11 3 -20 10 -20 15 0 5 -4 7 -8 4
-4 -2 -8 3 -9 12 -1 9 -4 29 -7 44 -3 20 -1 25 10 21 9 -3 12 -13 9 -23z m185
18 c0 -4 -4 -8 -9 -8 -6 0 -12 4 -15 8 -3 5 1 9 9 9 8 0 15 -4 15 -9z m20 -28
c0 -5 -4 -10 -9 -10 -6 0 -13 5 -16 10 -3 6 1 10 9 10 9 0 16 -4 16 -10z m-80
-30 c0 -5 -4 -10 -10 -10 -5 0 -10 5 -10 10 0 6 5 10 10 10 6 0 10 -4 10 -10z
m-30 -10 c0 -5 -5 -10 -11 -10 -5 0 -7 5 -4 10 3 6 8 10 11 10 2 0 4 -4 4 -10z
m-45 -50 c3 -6 -1 -7 -9 -4 -18 7 -21 14 -7 14 6 0 13 -4 16 -10z"/>
<path d="M3055 1190 c-3 -5 -1 -10 4 -10 6 0 11 5 11 10 0 6 -2 10 -4 10 -3 0
-8 -4 -11 -10z"/>
<path d="M2760 1180 c0 -5 5 -10 11 -10 5 0 7 5 4 10 -3 6 -8 10 -11 10 -2 0
-4 -4 -4 -10z"/>
<path d="M596 1125 c13 -11 14 -13 3 -9 -12 4 -18 -2 -21 -24 -2 -16 -1 -38 2
-47 8 -22 40 -29 40 -9 0 9 5 12 13 8 6 -4 4 2 -5 13 -20 22 -23 49 -8 58 16
10 2 25 -23 25 -20 0 -20 0 -1 -15z"/>
<path d="M642 1110 c0 -14 2 -19 5 -12 2 6 2 18 0 25 -3 6 -5 1 -5 -13z"/>
<path d="M546 1085 c-3 -8 -1 -15 4 -15 6 0 10 7 10 15 0 8 -2 15 -4 15 -2 0
-6 -7 -10 -15z"/>
<path d="M3650 1039 c0 -4 6 -12 14 -18 11 -9 16 -9 22 0 4 8 3 9 -4 5 -7 -4
-12 -3 -12 3 0 5 6 11 13 14 6 3 2 4 -10 4 -13 -1 -23 -4 -23 -8z"/>
<path d="M3611 1016 c-15 -8 -20 -16 -12 -20 6 -4 11 -2 11 3 0 6 7 11 15 11
8 0 15 5 15 10 0 12 0 12 -29 -4z"/>
<path d="M3621 978 c-1 -10 -6 -18 -12 -18 -5 0 -7 6 -3 13 5 9 4 9 -6 0 -7
-6 -19 -9 -26 -6 -9 3 -14 -2 -15 -13 0 -18 -1 -18 -8 1 -8 19 -8 19 -20 -3
-9 -18 -10 -27 -1 -37 7 -8 9 -19 6 -24 -8 -12 0 -17 43 -26 27 -6 33 -4 29 7
-4 8 1 14 12 15 24 2 21 -32 -5 -51 -11 -9 -17 -16 -14 -16 3 0 20 11 39 25
25 18 35 34 36 57 2 26 1 29 -7 16 -6 -10 -15 -18 -20 -18 -6 0 -8 4 -4 9 3 6
-3 14 -12 20 -10 5 -15 13 -11 17 4 4 14 1 23 -6 10 -8 15 -9 15 -1 0 6 -4 11
-8 11 -5 0 -14 10 -20 23 -8 17 -11 18 -11 5z m-55 -76 c1 -12 -3 -22 -8 -22
-6 0 -8 7 -4 15 3 8 1 15 -4 15 -6 0 -10 5 -10 11 0 21 25 2 26 -19z"/>
<path d="M1120 970 c0 -13 12 -19 26 -13 21 8 17 22 -6 20 -11 -1 -20 -4 -20
-7z"/>
<path d="M3720 970 c0 -5 5 -10 11 -10 5 0 7 5 4 10 -3 6 -8 10 -11 10 -2 0
-4 -4 -4 -10z"/>
<path d="M496 961 c-4 -6 6 -8 23 -6 20 3 31 -1 34 -11 3 -9 4 -8 3 3 -1 20
-50 31 -60 14z"/>
<path d="M3449 943 c-12 -16 -12 -17 2 -6 9 7 20 9 24 5 5 -4 5 -1 1 6 -9 16
-11 15 -27 -5z"/>
<path d="M3423 908 c-2 -16 1 -18 10 -9 7 7 8 14 1 21 -6 6 -10 2 -11 -12z"/>
<path d="M3468 923 c6 -2 9 -10 6 -15 -4 -7 -2 -8 5 -4 13 9 5 26 -12 25 -9 0
-8 -2 1 -6z"/>
<path d="M750 875 c-12 -14 -11 -18 0 -25 10 -6 18 -4 23 6 13 23 -7 39 -23
19z"/>
<path d="M3210 880 c0 -5 5 -10 10 -10 6 0 10 5 10 10 0 6 -4 10 -10 10 -5 0
-10 -4 -10 -10z"/>
<path d="M791 864 c0 -11 3 -14 6 -6 3 7 2 16 -1 19 -3 4 -6 -2 -5 -13z"/>
<path d="M3400 870 c-9 -6 -10 -10 -3 -10 6 0 15 5 18 10 8 12 4 12 -15 0z"/>
<path d="M3360 855 c0 -8 2 -15 4 -15 2 0 6 7 10 15 3 8 1 15 -4 15 -6 0 -10
-7 -10 -15z"/>
<path d="M2846 825 c-10 -27 -7 -37 10 -31 8 3 12 2 9 -4 -3 -6 -2 -10 3 -10
19 0 20 28 3 44 -17 16 -19 16 -25 1z"/>
<path d="M990 724 c0 -8 5 -12 10 -9 6 3 10 10 10 16 0 5 -4 9 -10 9 -5 0 -10
-7 -10 -16z"/>
<path d="M3081 714 c0 -11 3 -14 6 -6 3 7 2 16 -1 19 -3 4 -6 -2 -5 -13z"/>
<path d="M3154 654 c7 -15 13 -19 18 -11 13 21 9 36 -10 34 -15 -1 -17 -5 -8
-23z"/>
<path d="M3168 613 c7 -3 16 -2 19 1 4 3 -2 6 -13 5 -11 0 -14 -3 -6 -6z"/>
</g>
</svg>
