<?xml version="1.0" standalone="no"?>
<!DOCTYPE svg PUBLIC "-//W3C//DTD SVG 20010904//EN"
 "http://www.w3.org/TR/2001/REC-SVG-20010904/DTD/svg10.dtd">
<svg version="1.0" xmlns="http://www.w3.org/2000/svg"
 width="600.000000pt" height="600.000000pt" viewBox="0 0 600.000000 600.000000"
 preserveAspectRatio="xMidYMid meet">

<g transform="translate(0.000000,600.000000) scale(0.100000,-0.100000)"
fill="#000000" stroke="none">
<path d="M2201 4363 c-43 -4 -84 -24 -109 -53 -10 -11 -15 -12 -18 -2 -8 18
-24 15 -24 -6 0 -31 -20 -41 -71 -35 -58 7 -99 -2 -99 -22 0 -9 -10 -15 -25
-15 -16 0 -25 -6 -25 -15 0 -9 -8 -18 -17 -22 -10 -3 -26 -14 -36 -25 -10 -10
-27 -18 -37 -18 -11 0 -20 -4 -20 -10 0 -5 7 -10 16 -10 9 0 23 -8 30 -17 9
-12 16 -14 21 -7 10 13 128 3 161 -15 15 -8 22 -21 22 -41 0 -32 17 -49 26
-26 9 23 44 1 43 -27 l-2 -22 -4 23 c-2 12 -11 22 -19 22 -18 0 -32 -32 -16
-38 7 -2 10 -13 6 -26 -7 -31 46 -101 98 -126 53 -26 53 -26 68 10 7 16 16 27
21 24 5 -3 9 4 9 15 0 23 27 41 63 41 13 0 32 9 42 20 10 11 29 20 43 20 22 0
87 18 101 27 3 2 -4 10 -15 17 -10 8 -15 18 -11 22 4 4 14 -2 23 -14 20 -29
37 -18 29 19 -6 27 -5 29 24 29 26 0 30 4 33 33 2 17 -1 40 -7 50 -8 16 -1 27
45 68 45 40 52 51 40 59 -22 14 -34 12 -63 -10 -14 -11 -30 -20 -36 -20 -13 0
-51 72 -51 96 0 16 -17 16 -105 0 -25 -5 -26 -4 -5 2 25 8 25 8 -9 20 -33 12
-52 12 -140 5z m112 -40 c-7 -2 -21 -2 -30 0 -10 3 -4 5 12 5 17 0 24 -2 18
-5z"/>
<path d="M1180 4166 c0 -8 17 -16 47 -20 52 -7 61 -3 43 19 -16 19 -90 21 -90
1z"/>
<path d="M1060 4160 c-13 -9 -13 -11 -1 -19 18 -12 41 -3 41 15 0 16 -18 18
-40 4z"/>
<path d="M1310 4146 c6 -8 28 -20 48 -27 20 -6 44 -17 52 -24 17 -14 180 -18
180 -5 0 15 -34 21 -86 14 -44 -5 -58 -2 -95 19 -54 30 -118 45 -99 23z"/>
<path d="M933 4135 c-45 -19 -43 -39 3 -31 22 5 41 3 50 -5 7 -6 21 -9 29 -5
9 3 18 -1 22 -10 4 -11 18 -14 52 -12 42 3 46 1 49 -22 3 -24 3 -24 -11 -6
-10 14 -22 17 -43 13 -17 -3 -43 2 -65 12 -52 25 -151 18 -165 -13 -7 -17 -5
-23 15 -33 31 -17 46 -16 65 2 13 13 17 12 35 -12 26 -32 21 -39 -18 -23 -17
6 -53 10 -80 8 -28 -1 -51 0 -51 3 0 3 -17 4 -37 2 -21 -2 -51 -3 -67 -4 -16
0 -35 -4 -42 -10 -9 -8 -23 -8 -47 0 -19 7 -89 15 -156 20 -66 5 -127 14 -135
20 -10 9 -16 8 -26 -4 -7 -8 -24 -15 -39 -15 -15 0 -35 -6 -46 -14 -11 -7 -29
-16 -40 -18 -20 -5 -10 -11 53 -33 6 -2 12 -9 12 -16 0 -7 -7 -8 -17 -3 -21 9
-56 9 -79 0 -14 -5 -14 -9 -3 -22 10 -12 25 -15 61 -12 26 3 48 1 48 -3 0 -5
-11 -9 -24 -9 -13 0 -33 -8 -45 -17 -20 -18 -20 -18 -2 -43 16 -20 21 -22 35
-11 14 11 16 11 16 -4 0 -11 5 -15 15 -12 8 4 17 2 21 -4 3 -6 13 -8 21 -4 34
12 -7 -21 -52 -44 -26 -13 -44 -25 -41 -28 7 -8 97 17 120 33 13 9 24 10 32 4
19 -17 46 0 40 25 -3 12 1 30 10 41 14 16 15 17 10 2 -7 -22 12 -23 41 -3 25
18 62 15 146 -10 44 -12 60 -23 67 -41 5 -13 16 -24 25 -24 9 0 15 -9 15 -24
0 -14 10 -30 25 -40 27 -18 32 -8 14 27 -7 13 1 8 20 -12 17 -19 31 -39 31
-45 0 -5 15 -22 33 -37 31 -26 32 -29 29 -93 -2 -63 0 -71 35 -126 21 -32 46
-61 55 -63 10 -3 27 -25 37 -50 11 -25 25 -47 33 -49 11 -4 11 -8 -1 -21 -12
-15 -11 -17 6 -17 11 0 25 -10 32 -23 13 -24 50 -52 58 -44 2 3 -16 35 -42 72
-25 37 -44 73 -42 79 3 6 8 2 13 -9 4 -11 34 -50 66 -86 32 -37 58 -76 58 -87
0 -23 25 -52 44 -52 7 0 21 -9 31 -20 10 -11 26 -20 35 -20 10 0 23 -7 30 -15
9 -11 16 -12 30 -2 16 9 23 7 44 -12 14 -13 40 -26 58 -30 22 -5 37 -16 46
-33 7 -15 29 -41 49 -57 33 -27 39 -29 53 -16 23 20 26 19 40 -15 15 -37 6
-77 -27 -112 -17 -18 -23 -32 -19 -46 4 -11 1 -32 -5 -46 -11 -24 -10 -28 9
-42 12 -8 22 -21 22 -27 0 -7 12 -34 25 -62 14 -27 25 -54 25 -60 1 -5 22 -24
48 -41 l47 -31 -2 -69 c-1 -75 -18 -185 -38 -249 -7 -22 -13 -67 -14 -100 -1
-35 -7 -66 -16 -75 -17 -19 -13 -91 8 -141 18 -43 67 -69 115 -62 36 6 54 23
24 23 -22 0 -52 30 -52 52 0 8 13 27 30 41 33 30 38 47 15 47 -22 0 -19 8 17
49 26 30 29 37 15 39 -9 2 -17 8 -17 14 0 6 10 8 24 4 20 -5 23 -3 19 14 -5
17 0 20 31 20 27 0 39 6 52 25 9 14 13 32 10 41 -4 11 -1 14 12 10 19 -6 72
36 72 57 0 7 14 25 31 42 21 20 29 37 26 52 -5 28 18 50 70 68 61 20 92 79 84
159 -1 11 9 31 23 45 32 36 46 64 46 99 0 24 -8 34 -46 58 -25 16 -53 28 -60
26 -8 -2 -31 7 -50 19 -19 11 -43 19 -54 16 -10 -3 -21 0 -23 7 -3 8 -10 8
-25 -1 -13 -8 -23 -9 -27 -3 -3 6 0 10 8 10 8 0 20 7 27 15 18 22 -42 95 -79
95 -16 0 -37 10 -51 25 -13 14 -30 25 -38 25 -10 0 -12 7 -7 27 5 22 4 24 -8
15 -10 -9 -16 -9 -25 0 -10 10 -17 10 -32 0 -13 -8 -21 -8 -26 -1 -3 6 -12 8
-20 5 -7 -3 -16 -1 -19 4 -12 19 -33 10 -44 -17 -10 -26 -11 -25 -5 10 l5 38
-29 -15 c-16 -8 -37 -27 -46 -41 -16 -25 -19 -26 -35 -10 -16 13 -23 14 -45 3
-36 -16 -48 2 -43 59 5 49 -6 63 -49 63 -27 0 -31 3 -29 24 2 13 8 33 14 44
16 30 15 32 -25 32 -26 0 -37 -5 -40 -18 -3 -9 -16 -22 -29 -28 -20 -10 -27
-8 -49 15 -22 23 -26 36 -26 87 0 56 2 60 34 82 28 19 38 21 61 12 23 -9 30
-8 37 5 10 17 53 20 63 4 4 -6 13 -8 20 -5 8 3 15 -6 19 -22 9 -42 33 -69 48
-54 10 10 8 23 -5 60 l-18 47 50 43 c36 31 48 47 44 62 -4 14 0 20 12 20 11 0
15 5 11 15 -3 8 -1 15 4 15 6 0 10 7 10 15 0 10 10 15 31 15 26 0 29 3 24 20
-5 16 0 23 27 34 28 13 33 13 36 0 4 -17 3 -17 63 2 27 9 49 22 49 30 0 16
-17 27 -24 15 -9 -14 -55 11 -49 26 7 19 -19 25 -53 13 l-29 -10 24 20 c28 24
71 27 71 5 0 -14 4 -14 33 1 17 9 40 23 50 32 21 18 22 6 2 -28 -21 -38 -19
-40 36 -40 43 0 50 3 45 16 -3 9 -6 18 -6 20 0 2 -8 4 -18 4 -27 0 -32 9 -20
36 10 22 8 28 -21 54 -18 17 -38 30 -44 30 -7 0 -25 18 -40 40 -30 42 -51 50
-61 25 -6 -17 -45 -21 -47 -5 -1 6 -2 15 -3 21 -1 15 -81 41 -114 37 -21 -2
-28 -10 -33 -33 -3 -19 0 -36 9 -47 20 -24 8 -52 -19 -45 -16 4 -19 2 -14 -11
4 -9 10 -28 13 -40 4 -19 1 -23 -14 -20 -12 2 -18 11 -16 22 2 10 -1 15 -7 12
-5 -4 -12 2 -15 11 -6 17 -112 53 -158 54 -10 0 -18 7 -18 15 0 8 -7 14 -15
14 -8 0 -15 9 -15 19 0 22 74 81 102 81 10 0 18 5 18 11 0 5 5 7 11 4 6 -4 8
-13 5 -21 -7 -17 8 -18 34 -2 16 11 22 9 33 -6 10 -14 16 -16 22 -7 10 17 -4
30 -51 46 l-39 14 38 1 c40 0 62 25 36 40 -15 10 -9 13 38 23 26 6 62 -16 45
-27 -7 -4 -12 -11 -12 -17 0 -14 21 -11 39 5 11 10 21 12 31 6 13 -8 12 -10
-2 -10 -9 0 -21 -6 -25 -14 -4 -8 -19 -16 -32 -18 -44 -6 -37 -28 9 -28 22 0
55 -7 73 -17 38 -19 127 -27 127 -10 0 6 -12 22 -27 35 -23 19 -24 23 -8 19
11 -3 27 -8 36 -11 10 -4 23 0 33 9 15 16 14 18 -21 36 -20 10 -43 19 -50 19
-8 0 -17 8 -20 18 -8 22 -23 32 -49 32 -11 0 -44 12 -73 26 -44 22 -61 26
-103 21 -31 -4 -55 -13 -64 -24 -12 -17 -13 -17 -14 5 0 26 -35 30 -66 8 -26
-20 -8 -49 35 -56 35 -6 39 -13 17 -35 -12 -12 -15 -11 -19 7 -4 15 -11 19
-23 14 -12 -5 -28 4 -51 25 -38 38 -48 35 -32 -10 9 -27 9 -35 -2 -42 -21 -13
-26 -11 -33 16 -4 14 -13 25 -22 25 -11 0 -13 -6 -9 -20 6 -19 2 -20 -55 -20
-38 0 -59 4 -55 10 3 6 19 10 36 10 39 0 38 25 -2 39 -24 8 -30 15 -26 31 4
15 0 20 -14 20 -17 0 -18 3 -9 20 10 19 6 24 -14 21 -4 -1 -14 4 -22 10 -10 8
-17 9 -28 0 -15 -13 -71 -4 -101 16 -24 16 -31 16 -72 -2z m-48 -526 c13 -20
0 -15 -25 9 -23 22 -23 24 -3 13 12 -6 25 -16 28 -22z m618 7 c27 -21 21 -25
-34 -24 l-52 0 29 19 c34 22 34 22 57 5z m95 -65 c3 -8 0 -11 -7 -7 -7 4 -11
-1 -11 -13 0 -33 -17 -33 -29 -1 -5 17 -14 30 -18 30 -17 0 -33 -25 -33 -51 0
-15 -4 -31 -10 -34 -11 -7 -14 77 -3 89 13 13 106 2 111 -13z m62 -31 c0 -5
-6 -10 -12 -10 -7 0 -24 -9 -38 -20 -14 -11 -32 -20 -40 -19 -10 0 -9 3 5 11
11 6 26 20 33 30 14 19 52 25 52 8z m91 -1843 c-10 -9 -11 -8 -5 6 3 10 9 15
12 12 3 -3 0 -11 -7 -18z"/>
<path d="M4579 4129 c-27 -14 -43 -17 -60 -11 -13 5 -33 6 -44 1 -11 -4 -35
-8 -53 -8 -18 -1 -47 -9 -65 -18 -18 -9 -52 -20 -77 -23 l-45 -6 32 -20 c31
-18 44 -44 23 -44 -5 0 -10 4 -10 9 0 10 -62 51 -78 51 -5 0 -12 -9 -15 -20
-7 -26 -27 -26 -27 1 0 11 -4 17 -10 14 -6 -4 -10 -27 -8 -52 1 -37 -2 -49
-21 -65 -13 -10 -27 -16 -30 -12 -3 3 2 11 12 18 20 16 24 95 5 114 -18 18
-46 14 -58 -8 -6 -11 -17 -20 -25 -20 -19 0 -19 -9 2 -32 15 -17 15 -18 -4
-18 -11 0 -34 5 -51 11 -22 8 -36 7 -53 -1 -12 -7 -52 -14 -88 -16 -81 -4
-132 -13 -148 -26 -8 -7 -10 -3 -6 11 4 17 1 21 -17 21 -20 0 -22 -4 -16 -32
4 -21 3 -28 -3 -19 -11 18 -48 6 -62 -20 -7 -13 -16 -18 -26 -14 -9 3 -19 1
-23 -5 -5 -7 -18 -2 -37 14 -17 15 -38 24 -46 20 -8 -3 -18 0 -22 7 -6 9 10
10 69 4 54 -5 76 -3 76 5 0 16 -60 39 -124 46 -31 4 -53 10 -51 14 3 4 -3 10
-13 12 -25 7 -155 -11 -167 -23 -5 -5 -17 -9 -28 -9 -10 0 -15 -5 -12 -10 3
-6 -8 -23 -27 -38 -18 -15 -40 -34 -49 -43 -9 -10 -31 -20 -47 -24 -38 -8 -55
-27 -50 -57 3 -21 8 -23 49 -21 44 3 48 1 63 -31 16 -34 17 -34 46 -19 17 8
30 20 30 28 0 7 10 19 22 27 21 14 22 16 5 33 -21 20 -10 40 28 49 14 4 25 11
25 16 0 14 39 32 51 24 6 -4 -1 -17 -20 -33 -25 -22 -28 -30 -20 -50 9 -22 12
-23 77 -17 47 5 63 4 52 -3 -8 -6 -37 -11 -64 -11 -39 0 -47 -3 -42 -15 4 -11
-1 -15 -19 -15 -18 0 -25 -7 -30 -29 -4 -20 -11 -28 -21 -24 -7 3 -27 1 -43
-5 -43 -15 -95 -1 -99 27 -3 15 -8 21 -19 17 -8 -3 -17 -6 -19 -6 -2 0 -4 -12
-4 -28 0 -21 -7 -30 -30 -40 -16 -8 -30 -20 -30 -28 0 -8 -6 -14 -14 -14 -7 0
-19 -7 -26 -15 -7 -8 -27 -17 -46 -21 -33 -6 -48 -24 -21 -24 23 0 37 -43 21
-64 -11 -16 -21 -18 -59 -13 -43 6 -46 5 -56 -21 -6 -15 -14 -34 -18 -42 -11
-24 -1 -50 19 -50 10 0 20 -4 22 -10 4 -12 73 4 90 21 7 8 13 21 13 29 0 8 12
21 28 28 15 7 27 20 27 28 0 9 10 14 27 14 14 0 35 8 46 17 18 17 19 17 28 0
6 -10 30 -27 55 -38 25 -12 44 -28 44 -38 0 -13 2 -13 9 -2 5 8 7 20 4 28 -4
9 1 12 13 8 11 -3 3 3 -16 13 -60 30 -78 45 -73 59 4 10 12 9 37 -4 52 -29 71
-50 101 -113 30 -62 43 -71 66 -44 10 12 10 20 1 35 -10 15 -9 20 7 28 22 12
31 5 31 -24 0 -38 31 -56 98 -56 l60 -1 -8 -35 c-5 -20 -14 -41 -20 -47 -12
-12 -90 -15 -90 -3 0 4 -16 7 -36 7 -19 0 -44 5 -55 11 -16 8 -26 5 -49 -15
-31 -25 -60 -25 -81 0 -6 8 -19 14 -28 14 -19 0 -72 39 -53 40 6 0 12 9 12 19
0 11 -6 23 -12 28 -23 14 -141 2 -182 -19 -24 -12 -47 -17 -64 -13 -34 8 -80
-36 -88 -85 -4 -25 -14 -40 -34 -52 -16 -9 -41 -40 -55 -68 -23 -45 -25 -56
-15 -85 9 -27 8 -40 -5 -64 -19 -37 -12 -76 21 -111 13 -14 44 -47 68 -75 41
-45 47 -49 65 -37 12 6 41 12 67 12 26 0 59 8 76 18 29 17 30 17 54 -11 20
-23 30 -28 51 -22 28 7 48 -11 34 -30 -5 -5 -11 -25 -13 -44 -4 -27 2 -45 29
-85 19 -30 33 -63 33 -81 0 -17 5 -36 12 -43 9 -9 7 -17 -10 -35 -29 -31 -28
-76 3 -138 14 -27 27 -67 29 -88 2 -22 12 -54 23 -73 11 -18 24 -50 27 -70 4
-21 10 -39 15 -42 4 -3 36 -1 72 4 60 9 67 12 111 62 30 34 47 62 48 79 0 18
8 29 25 37 28 13 29 19 15 57 -9 24 -6 31 40 75 57 55 62 78 34 179 l-17 59
47 61 c26 34 58 68 70 77 29 18 86 125 86 160 0 22 -3 24 -22 18 -13 -3 -36
-13 -51 -21 -33 -17 -57 -11 -57 13 0 9 -13 31 -28 48 -25 29 -122 232 -122
256 0 6 6 10 13 10 11 0 57 -86 57 -108 0 -5 13 -26 29 -46 16 -20 33 -51 36
-69 17 -82 19 -83 136 -28 87 40 115 64 143 118 16 32 16 33 -11 50 -16 10
-31 22 -35 27 -3 5 -18 -1 -33 -12 l-27 -22 -19 24 c-11 13 -19 29 -19 34 0 5
-7 15 -15 22 -15 13 -21 50 -7 50 4 0 20 -16 36 -36 25 -32 33 -36 62 -31 19
3 34 2 34 -3 0 -5 11 -17 25 -26 20 -13 33 -14 74 -5 46 10 52 9 74 -12 13
-12 28 -33 32 -45 5 -17 13 -22 25 -19 15 4 19 -4 24 -43 4 -27 20 -74 36
-107 16 -32 30 -65 30 -73 0 -8 4 -21 9 -29 14 -22 51 60 51 113 0 35 5 48 20
56 10 6 38 30 62 54 26 26 55 46 73 49 26 5 34 1 53 -27 13 -19 22 -47 22 -69
0 -41 13 -48 30 -17 16 30 30 24 30 -14 0 -19 5 -47 10 -62 7 -16 7 -31 2 -36
-6 -6 4 -37 24 -77 33 -67 59 -99 70 -88 10 10 -26 93 -55 128 -24 28 -26 36
-17 65 6 19 14 34 18 34 4 0 21 -21 39 -46 l31 -46 27 24 c62 54 64 70 21 135
-35 52 -36 55 -12 76 27 25 31 21 25 -23 -5 -33 -3 -40 11 -40 12 0 16 10 16
40 0 40 0 40 37 40 32 0 46 8 95 57 51 50 58 62 58 96 0 23 -8 50 -20 67 l-19
27 24 11 c34 16 31 32 -5 32 -40 0 -49 24 -19 50 31 25 38 25 32 0 -5 -21 11
-28 22 -10 11 19 25 10 25 -15 0 -19 5 -25 18 -23 14 2 16 -3 14 -29 -3 -27 0
-33 16 -33 28 0 44 41 27 74 -13 24 -11 28 18 61 22 25 36 33 50 29 28 -9 114
78 129 131 l12 40 6 -54 c3 -33 10 -56 19 -59 9 -3 11 2 6 17 -4 12 -2 28 5
36 7 9 9 23 4 37 -4 13 -7 28 -6 35 4 17 -13 24 -58 25 -22 0 -40 4 -40 9 0 5
-8 6 -17 3 -16 -4 -16 -3 1 8 10 7 36 27 57 44 37 31 40 32 131 29 91 -2 94
-2 140 31 43 31 46 31 51 13 5 -18 9 -19 27 -9 12 6 24 9 27 7 6 -6 -26 -27
-82 -53 l-40 -19 0 -78 0 -78 27 33 c15 18 44 49 63 68 22 22 35 45 35 61 0
37 18 49 77 49 30 0 67 7 82 15 16 8 47 17 70 21 41 6 53 18 29 27 -10 3 -9 8
3 18 12 10 15 25 12 52 -5 37 -13 42 -57 37 -10 -1 -32 4 -48 11 -27 11 -32
10 -44 -6 -11 -15 -17 -16 -26 -7 -7 7 -41 12 -80 12 -46 0 -77 5 -93 16 -17
11 -36 14 -69 9 -37 -6 -52 -3 -80 15 -22 13 -43 19 -55 15 -11 -3 -33 1 -48
9 l-28 14 28 7 c43 11 18 27 -44 28 -55 2 -79 -14 -38 -23 26 -6 32 -19 20
-39 -6 -9 -30 -15 -66 -17 -31 -1 -59 -5 -63 -8 -14 -15 -34 -3 -43 24 -9 26
-16 30 -46 30 -19 0 -42 -4 -52 -10 -10 -5 -50 -6 -89 -3 -69 6 -71 7 -66 29
4 13 5 24 3 25 -2 0 -38 4 -79 8 -41 5 -82 11 -90 14 -8 3 -31 -3 -51 -14z
m-371 -152 c4 -21 -21 -22 -37 -3 -9 11 -9 15 1 19 20 8 33 2 36 -16z m-733
-138 c12 -19 -3 -22 -27 -5 l-22 16 21 0 c12 0 25 -5 28 -11z m50 1 c3 -5 2
-10 -4 -10 -5 0 -13 5 -16 10 -3 6 -2 10 4 10 5 0 13 -4 16 -10z m275 -264 c0
-2 3 -11 6 -20 5 -13 -1 -16 -25 -16 -37 0 -39 -11 -9 -45 12 -14 23 -33 24
-43 2 -9 6 -29 10 -44 6 -26 4 -28 -25 -28 -60 0 -97 40 -51 55 27 8 25 23 -3
34 -31 12 -54 57 -40 79 6 9 18 16 27 14 9 -2 24 2 34 7 17 10 52 15 52 7z
m-299 -32 c23 26 52 38 30 13 -8 -11 -3 -19 26 -38 52 -33 56 -59 9 -59 -20 0
-45 5 -56 12 -15 10 -26 10 -53 0 -79 -29 -102 -2 -53 61 l31 39 21 -28 22
-27 23 27z m-21 -858 c0 -20 -26 -40 -35 -26 -10 16 2 40 20 40 8 0 15 -6 15
-14z"/>
<path d="M4026 4133 c-4 -4 -40 -10 -79 -14 -71 -7 -95 -17 -172 -73 -20 -14
-19 -14 8 -25 15 -6 40 -14 54 -17 25 -7 26 -5 20 24 -6 28 -3 34 26 49 17 9
55 17 82 18 58 2 85 11 85 31 0 15 -12 19 -24 7z"/>
<path d="M1193 4105 c-7 -20 6 -33 16 -17 5 8 23 12 46 10 24 -2 40 2 42 10 7
19 -96 16 -104 -3z"/>
<path d="M1335 4100 c-3 -5 3 -10 15 -10 12 0 18 5 15 10 -3 6 -10 10 -15 10
-5 0 -12 -4 -15 -10z"/>
<path d="M1358 4072 c-29 -6 -20 -22 12 -22 17 0 30 4 30 9 0 12 -21 18 -42
13z"/>
<path d="M1243 4064 c-20 -9 -15 -24 7 -24 11 0 20 -5 20 -11 0 -6 10 -9 23
-7 14 2 22 10 22 23 0 15 -7 20 -30 22 -16 1 -36 0 -42 -3z"/>
<path d="M2510 3915 c0 -14 53 -45 75 -45 23 0 76 32 72 43 -6 18 -147 19
-147 2z"/>
<path d="M1540 3860 c0 -5 5 -10 11 -10 5 0 7 5 4 10 -3 6 -8 10 -11 10 -2 0
-4 -4 -4 -10z"/>
<path d="M160 3810 c0 -5 5 -10 10 -10 6 0 10 5 10 10 0 6 -4 10 -10 10 -5 0
-10 -4 -10 -10z"/>
<path d="M2897 3773 c-11 -10 -8 -63 3 -63 15 0 12 -19 -5 -37 -14 -14 -14
-16 2 -28 18 -13 43 -9 55 9 11 15 10 28 -1 22 -9 -6 -25 48 -22 72 1 6 -3 12
-9 12 -6 0 -8 5 -5 10 7 11 -8 14 -18 3z"/>
<path d="M2832 3705 c-7 -8 -10 -15 -6 -15 3 0 1 -7 -6 -15 -10 -13 -9 -15 8
-15 19 0 52 33 52 52 0 13 -34 8 -48 -7z"/>
<path d="M148 3689 c-17 -18 -17 -19 2 -19 13 0 20 7 20 20 0 24 0 24 -22 -1z"/>
<path d="M5236 3511 c-10 -11 -15 -24 -12 -29 3 -5 1 -25 -5 -45 -11 -42 -54
-77 -96 -77 -39 -1 -76 -33 -68 -60 8 -24 30 -26 39 -4 3 9 11 14 18 12 6 -2
36 8 67 24 44 22 57 35 67 65 9 24 10 42 3 54 -13 25 -12 29 10 29 31 0 75 20
65 29 -5 5 -23 12 -40 15 -23 5 -34 2 -48 -13z"/>
<path d="M3053 3462 c-8 -5 -9 -13 -3 -22 7 -12 10 -12 16 3 8 21 3 29 -13 19z"/>
<path d="M3120 3419 c0 -4 9 -9 20 -12 13 -3 20 0 20 8 0 8 -9 13 -20 12 -11
-1 -20 -4 -20 -8z"/>
<path d="M1620 3150 c0 -5 5 -10 10 -10 6 0 10 5 10 10 0 6 -4 10 -10 10 -5 0
-10 -4 -10 -10z"/>
<path d="M4907 3153 c-10 -10 -8 -43 2 -43 9 0 21 24 21 41 0 11 -14 12 -23 2z"/>
<path d="M1548 3123 c-31 -8 -19 -23 17 -23 20 0 47 -7 60 -16 13 -9 32 -14
42 -12 11 2 -1 12 -36 31 -29 15 -56 26 -59 26 -4 -1 -15 -3 -24 -6z"/>
<path d="M1711 3056 l-24 -14 23 -7 c32 -10 80 -13 80 -4 0 12 -30 39 -43 39
-7 -1 -23 -7 -36 -14z"/>
<path d="M1816 3041 c-4 -7 -5 -15 -2 -18 9 -9 19 4 14 18 -4 11 -6 11 -12 0z"/>
<path d="M4920 3038 c0 -8 -10 -22 -22 -31 l-23 -15 25 -27 c23 -24 23 -27 7
-36 -9 -6 -17 -15 -17 -21 0 -6 10 -2 23 9 12 11 31 25 42 31 19 10 18 11 -8
17 -32 8 -33 12 -10 37 16 17 16 20 0 35 -15 15 -17 16 -17 1z"/>
<path d="M1630 3015 c0 -8 5 -15 10 -15 6 0 10 7 10 15 0 8 -4 15 -10 15 -5 0
-10 -7 -10 -15z"/>
<path d="M4970 2915 c0 -8 7 -15 15 -15 8 0 15 7 15 15 0 8 -7 15 -15 15 -8 0
-15 -7 -15 -15z"/>
<path d="M4932 2888 c3 -7 13 -15 22 -16 12 -3 17 1 14 10 -3 7 -13 15 -22 16
-12 3 -17 -1 -14 -10z"/>
<path d="M4234 2857 c-7 -20 -2 -47 11 -50 14 -3 19 43 6 56 -7 7 -12 6 -17
-6z"/>
<path d="M4975 2860 c-4 -6 -12 -10 -18 -9 -46 6 -49 -14 -6 -35 38 -19 49
-14 49 25 0 29 -13 39 -25 19z"/>
<path d="M4830 2806 c0 -8 -9 -17 -19 -21 -11 -3 -22 -12 -25 -20 -3 -8 -12
-15 -21 -15 -8 0 -15 -7 -15 -16 0 -11 -6 -14 -20 -9 -19 6 -20 3 -14 -22 9
-38 32 -73 48 -73 7 0 28 -3 45 -6 28 -6 31 -4 31 18 0 13 7 34 16 46 10 15
13 32 9 51 -3 16 -2 32 4 35 6 4 4 14 -7 26 -19 24 -32 26 -32 6z"/>
<path d="M4490 2786 c0 -7 11 -21 25 -30 14 -9 36 -40 49 -69 35 -75 90 -124
160 -142 66 -17 86 -19 86 -6 0 14 -71 31 -139 34 -10 0 -12 11 -7 43 5 36 2
44 -17 57 -12 9 -48 40 -80 71 -58 57 -77 67 -77 42z"/>
<path d="M5032 2728 c-14 -14 -16 -48 -2 -48 10 0 26 48 18 55 -2 3 -10 -1
-16 -7z"/>
<path d="M4928 2713 c-16 -2 -28 -9 -28 -15 0 -6 12 -8 31 -4 17 3 35 6 40 6
5 0 9 5 9 10 0 10 -3 10 -52 3z"/>
<path d="M5076 2682 c-3 -6 3 -13 14 -17 15 -5 19 -12 15 -26 -5 -13 -2 -19
10 -19 20 0 77 -29 87 -44 4 -5 2 -16 -4 -23 -8 -10 -5 -13 11 -13 12 0 24 -7
27 -15 9 -21 31 -19 44 5 15 27 27 25 60 -10 15 -16 33 -30 39 -30 20 0 11 26
-20 61 -17 19 -38 44 -46 56 -19 29 -87 60 -143 66 -25 3 -55 8 -66 12 -12 4
-25 2 -28 -3z"/>
<path d="M4887 2673 c-10 -9 -9 -53 1 -53 4 0 13 5 20 12 9 9 12 8 12 -4 0 -8
7 -21 15 -28 12 -10 15 -9 15 7 0 10 -6 25 -12 32 -10 11 -10 14 0 18 6 3 12
9 12 14 0 10 -53 12 -63 2z"/>
<path d="M4960 2520 c-8 -14 -8 -20 0 -20 18 0 50 20 50 30 0 18 -39 10 -50
-10z"/>
<path d="M4886 2521 c-4 -7 -5 -15 -2 -18 9 -9 19 4 14 18 -4 11 -6 11 -12 0z"/>
<path d="M5256 2482 c-4 -12 -5 -35 -1 -50 3 -16 0 -35 -8 -46 -12 -17 -14
-17 -50 4 -31 19 -35 25 -31 50 6 26 3 28 -30 32 -20 2 -36 0 -36 -5 0 -4 -8
-6 -19 -2 -14 4 -20 -1 -25 -20 -6 -24 -36 -36 -36 -15 0 21 -31 9 -40 -16 -6
-14 -19 -28 -30 -31 -11 -3 -23 -16 -26 -28 -4 -18 -19 -27 -65 -39 -64 -18
-85 -42 -73 -79 4 -12 7 -30 5 -39 -1 -9 7 -36 19 -60 17 -36 19 -47 8 -66
-10 -19 -9 -25 5 -39 15 -16 19 -16 52 0 20 9 44 17 54 17 9 0 27 12 40 26 13
15 28 23 37 20 9 -3 24 -1 36 5 25 13 86 -13 97 -43 6 -18 8 -18 20 -4 15 18
31 21 31 6 0 -5 9 -19 20 -30 11 -11 20 -26 20 -34 0 -27 80 -40 126 -20 24
10 37 28 59 79 35 82 31 157 -9 210 -14 19 -26 37 -26 42 0 5 -10 13 -22 18
-13 6 -26 24 -31 45 -5 19 -17 46 -28 61 -10 15 -23 37 -28 50 l-8 24 -7 -23z"/>
<path d="M3706 2439 c-10 -17 -29 -35 -42 -41 -20 -10 -24 -19 -26 -62 -3
-109 7 -140 40 -120 25 15 60 129 61 197 1 31 -3 57 -7 57 -4 0 -16 -14 -26
-31z"/>
<path d="M5860 2375 c-7 -8 -8 -15 -2 -15 5 0 15 7 22 15 7 8 8 15 2 15 -5 0
-15 -7 -22 -15z"/>
<path d="M5630 2302 c0 -10 21 -32 32 -32 16 0 8 19 -12 30 -11 6 -20 7 -20 2z"/>
<path d="M5780 2036 c0 -3 4 -16 10 -30 6 -16 6 -27 0 -31 -16 -10 -12 -25 6
-25 10 0 14 -6 10 -15 -9 -25 12 -17 33 14 26 36 26 41 1 41 -12 0 -25 10 -32
25 -9 21 -28 35 -28 21z"/>
<path d="M5322 1922 c-21 -6 -21 -9 -9 -26 17 -24 47 -15 47 14 0 21 -2 22
-38 12z"/>
<path d="M5750 1920 c0 -5 -18 -21 -41 -35 -26 -17 -39 -32 -37 -43 6 -31 39
-25 79 14 43 42 51 74 19 74 -11 0 -20 -4 -20 -10z"/>
</g>
</svg>
